# xmcd CD database file
#
# Track frame offsets:
#	150
#	9235
#	18967
#	38580
#	51167
#	61680
#	84907
#	107172
#	120240
#	133082
#	147675
#
# Disc length: 2323 seconds
#
# Revision: 0
# Processed by: cddbd v1.4PL0 Copyright (c) Steve Scherf et al.
# Submitted via: Feurio! 1.63.1ß - http://www.feurio.com
#
DISCID=8309110b
DTITLE=Mellow Yellow and The Boogaloo Kings - Uppertown Blues
DYEAR=1900
DGENRE=blues
TTITLE0=Bullterrier Boogie
TTITLE1=My Buddy Friends
TTITLE2=Chicago Weather Woman
TTITLE3=Diggin My Potatoes
TTITLE4=Little Bitty - Rockin Robin
TTITLE5=Help Me
TTITLE6=Christo Redemptor
TTITLE7=Take Care For Sure
TTITLE8=Uppertown Blues
TTITLE9=I Can't Understand
TTITLE10=Brought Up The Hard Way
EXTD=
EXTT0=
EXTT1=
EXTT2=
EXTT3=
EXTT4=
EXTT5=
EXTT6=
EXTT7=
EXTT8=
EXTT9=
EXTT10=
PLAYORDER=
